<?xml version="1.0" standalone="no"?>
<!DOCTYPE svg PUBLIC "-//W3C//DTD SVG 20010904//EN"
 "http://www.w3.org/TR/2001/REC-SVG-20010904/DTD/svg10.dtd">
<svg version="1.0" xmlns="http://www.w3.org/2000/svg"
 width="1024.000000pt" height="1024.000000pt" viewBox="0 0 1024.000000 1024.000000"
 preserveAspectRatio="xMidYMid meet">

<g transform="translate(0.000000,1024.000000) scale(0.100000,-0.100000)"
fill="#000000" stroke="none">
<path d="M4944 7814 c-21 -14 -47 -35 -56 -46 -10 -11 -18 -15 -18 -9 0 12
-122 -63 -187 -116 -24 -19 -43 -42 -43 -51 0 -13 -2 -14 -8 -4 -10 15 -62 0
-62 -18 0 -5 -6 -10 -14 -10 -8 0 -24 -12 -35 -26 -12 -15 -21 -21 -21 -15 0
7 -21 -3 -46 -21 -25 -18 -67 -46 -93 -61 -25 -16 -57 -39 -71 -51 -14 -13
-41 -32 -60 -42 -19 -10 -50 -31 -68 -46 -18 -16 -39 -28 -47 -28 -8 0 -32
-17 -54 -38 -22 -21 -42 -34 -44 -29 -1 5 -25 -9 -52 -30 -28 -21 -78 -56
-112 -77 -36 -21 -63 -45 -64 -54 0 -10 -3 -12 -5 -5 -5 11 -44 -11 -94 -54
-8 -7 -63 -45 -122 -84 -60 -39 -108 -75 -108 -80 0 -5 -16 -15 -35 -23 -42
-18 -180 -118 -217 -158 -16 -16 -28 -24 -28 -17 0 6 -15 -5 -34 -24 -19 -20
-36 -33 -38 -28 -4 10 -181 -116 -201 -143 -8 -10 -18 -16 -23 -13 -5 3 -30
-10 -54 -29 -25 -19 -58 -42 -75 -51 -25 -13 -199 -127 -214 -140 -3 -2 2 -10
10 -18 17 -18 98 -36 265 -60 l119 -17 90 56 c50 32 101 67 115 80 14 12 48
36 75 51 59 34 184 125 204 149 7 9 19 16 26 16 7 0 68 39 135 86 67 47 135
93 150 102 81 49 231 154 243 172 8 11 29 25 48 31 19 7 41 17 49 24 8 6 74
51 145 100 72 48 141 98 156 111 14 13 32 24 40 24 9 0 29 16 46 35 17 19 33
31 35 25 1 -5 29 10 60 35 32 25 61 45 65 45 5 0 35 23 68 50 33 28 66 50 73
50 8 0 31 13 51 28 20 15 60 43 89 61 28 18 52 40 53 50 0 9 3 11 6 4 3 -9 9
-10 23 -1 14 9 22 9 34 -1 13 -11 16 -11 16 0 1 8 8 2 16 -13 8 -16 19 -28 25
-28 13 0 121 -73 139 -94 10 -14 15 -14 21 -4 7 10 9 9 9 -3 0 -8 17 -27 38
-40 163 -109 211 -143 241 -169 26 -23 37 -27 43 -18 6 10 8 9 8 -4 0 -9 11
-23 24 -30 14 -7 60 -38 103 -69 43 -30 94 -64 113 -75 19 -10 58 -37 85 -60
28 -22 77 -58 110 -79 82 -52 139 -91 212 -144 34 -25 78 -54 97 -66 55 -32
245 -164 313 -217 34 -26 65 -48 68 -48 6 0 78 -49 175 -120 30 -22 108 -76
174 -121 147 -100 256 -180 278 -205 16 -18 17 -75 19 -701 1 -560 4 -686 15
-708 8 -15 12 -31 9 -35 -9 -15 14 -21 34 -11 13 7 17 17 14 31 -6 23 23 51
44 43 7 -3 13 1 13 8 1 9 4 8 11 -3 9 -16 13 -17 38 -3 16 8 31 22 35 30 3 9
6 271 6 581 l0 564 255 0 c197 0 255 3 255 13 0 8 4 7 10 -3 9 -13 10 -13 10
0 0 11 2 12 8 3 7 -10 12 -10 25 0 16 11 16 14 2 34 -8 12 -48 43 -88 69 -39
27 -126 86 -192 132 -66 47 -127 87 -135 90 -8 3 -24 13 -36 23 -11 11 -72 54
-135 96 -126 85 -324 221 -491 337 -66 47 -109 70 -112 63 -2 -7 -5 -5 -5 4
-1 9 -28 34 -61 55 -92 59 -91 55 -89 366 1 146 -2 271 -5 277 -11 16 -412 15
-422 -1 -7 -11 -11 -81 -13 -246 l-1 -33 -94 65 c-52 36 -98 66 -102 66 -4 0
-18 10 -31 22 -13 12 -23 17 -23 11 0 -6 -15 4 -33 21 -19 17 -76 58 -128 91
-52 32 -96 62 -99 66 -4 6 -47 35 -125 87 -11 7 -33 20 -49 30 -16 9 -41 27
-57 40 -58 47 -219 149 -219 139 0 -6 -12 3 -27 19 -16 16 -44 40 -63 52 -19
12 -89 58 -155 102 -65 44 -127 80 -136 80 -9 0 -34 -12 -55 -26z"/>
<path d="M7670 7208 c-10 -4 -36 -25 -57 -47 -21 -23 -42 -41 -47 -41 -6 0
-22 12 -37 26 -34 32 -73 34 -102 5 l-21 -21 21 0 c22 0 53 -34 53 -57 0 -8
-14 -13 -37 -13 -49 0 -95 -29 -129 -80 -25 -38 -27 -67 -2 -42 6 6 18 8 27 3
14 -7 91 11 151 36 21 9 32 8 60 -5 14 -6 37 -13 51 -16 14 -3 37 -21 49 -39
22 -32 25 -33 42 -18 10 9 22 16 26 16 4 0 20 12 36 27 l29 26 -57 18 c-66 21
-68 30 -26 97 23 36 45 54 102 84 66 34 70 38 43 40 -87 7 -159 7 -175 1z"/>
<path d="M7850 6660 c-14 -11 -20 -20 -13 -20 18 0 73 -62 73 -82 0 -21 -9
-22 -59 -7 -62 19 -112 -2 -181 -74 -32 -34 -57 -64 -55 -66 3 -2 11 2 20 9 8
7 21 10 30 7 8 -4 21 1 30 9 8 9 15 12 15 7 0 -4 42 -8 94 -8 80 0 99 -3 123
-21 15 -11 47 -31 70 -44 40 -22 53 -42 53 -87 0 -18 4 -21 27 -17 32 6 60 20
94 48 23 19 24 23 10 37 -9 8 -29 21 -44 29 -46 23 -54 49 -24 74 14 11 33 34
43 49 17 28 144 97 178 97 8 0 17 4 20 9 7 11 -41 22 -130 28 -77 5 -128 -12
-168 -56 -26 -28 -32 -27 -51 12 -41 84 -100 110 -155 67z"/>
<path d="M6030 6081 c0 -5 5 -13 10 -16 25 -15 6 -32 -48 -43 -41 -8 -66 -20
-86 -41 -28 -29 -23 -46 11 -34 14 5 12 0 -8 -23 -27 -29 -49 -66 -49 -80 0
-4 14 5 32 22 17 16 29 22 26 14 -4 -8 -9 -24 -14 -35 -5 -14 3 -10 29 14 21
19 37 30 37 25 0 -6 -12 -21 -26 -35 -36 -33 -50 -65 -59 -127 -7 -53 -7 -53
-61 -77 -55 -24 -63 -39 -44 -75 7 -13 7 -21 0 -25 -19 -12 -10 -34 20 -52 39
-23 38 -31 -5 -39 -31 -5 -50 -24 -25 -24 5 0 1 -19 -10 -42 -21 -47 -15 -62
28 -73 38 -9 169 -92 176 -111 3 -9 6 -26 6 -39 0 -13 4 -25 10 -27 5 -1 -40
-18 -100 -37 l-111 -35 -120 -123 c-65 -68 -122 -123 -125 -123 -3 0 -20 -11
-38 -25 -34 -26 -66 -25 -66 1 0 8 -9 23 -21 35 -18 18 -31 21 -102 18 -90 -3
-127 5 -127 27 0 8 15 36 33 63 27 43 36 49 58 44 21 -4 32 2 57 35 52 65 67
129 37 162 -11 13 -13 24 -5 51 17 59 12 163 -8 190 -11 13 -22 36 -25 51 -4
14 -28 44 -53 67 -40 35 -43 39 -20 35 38 -7 33 21 -6 37 -18 8 -63 14 -100
14 -38 0 -61 3 -52 8 8 4 14 13 14 19 0 11 -70 6 -102 -7 -13 -5 -18 -2 -18 9
0 21 -26 21 -34 -1 -6 -14 -8 -14 -22 3 -14 19 -15 19 -27 0 -16 -26 -30 -38
-107 -94 -41 -30 -74 -64 -90 -92 -22 -41 -25 -56 -26 -160 0 -63 -5 -124 -11
-135 -14 -26 -6 -72 20 -110 31 -46 79 -95 94 -95 20 0 98 -90 98 -114 0 -16
-6 -21 -25 -19 -86 6 -168 13 -185 15 -14 2 -21 -3 -23 -18 -2 -16 -8 -21 -23
-17 -15 4 -22 0 -26 -16 -8 -31 -62 -29 -93 4 -48 52 -126 104 -173 116 -26 7
-47 19 -47 26 0 18 -26 29 -97 43 l-63 13 0 49 c0 62 11 82 52 98 118 45 130
52 145 81 10 20 12 141 4 247 -1 7 -14 18 -30 23 -43 15 -59 47 -64 130 -2 41
-8 83 -12 94 -8 19 -8 19 12 2 11 -9 23 -14 26 -10 19 19 1 52 -62 113 -74 72
-111 87 -172 70 -20 -6 -39 -6 -51 1 -12 6 -40 8 -67 5 -25 -4 -78 -8 -117
-10 -102 -5 -168 -37 -232 -115 -28 -34 -59 -83 -69 -111 -12 -34 -24 -50 -38
-52 -11 -2 -19 -9 -17 -16 2 -9 -7 -11 -30 -7 -44 8 -111 -17 -166 -62 -50
-41 -64 -69 -82 -166 -10 -53 -10 -73 0 -97 14 -34 35 -41 27 -9 -3 12 -2 18
2 13 5 -5 14 -31 20 -59 7 -27 23 -66 37 -86 47 -68 44 -135 -7 -193 l-30 -35
28 -3 c25 -3 29 -8 34 -47 7 -52 53 -101 96 -101 25 0 26 1 8 20 -27 29 -16
99 24 148 17 22 31 45 31 51 0 6 5 11 10 11 13 0 -15 -57 -44 -88 l-21 -24 35
17 c44 21 77 68 90 126 9 40 9 38 5 -21 -4 -50 -2 -61 7 -52 7 7 14 51 16 102
4 83 2 94 -24 147 -15 32 -36 70 -46 84 -11 14 -21 32 -22 40 -2 8 -8 27 -14
42 -16 38 -15 89 1 111 11 16 17 16 34 6 13 -9 19 -20 15 -32 -9 -36 29 -135
75 -192 56 -72 113 -113 169 -122 41 -6 63 -24 30 -24 -8 0 -18 -5 -22 -11 -4
-8 1 -9 17 -4 23 8 23 7 6 -18 -26 -40 -20 -46 9 -9 14 17 30 32 35 32 20 0 8
-40 -18 -59 -16 -12 -34 -26 -40 -31 -7 -6 -13 -8 -13 -6 0 3 -28 -8 -62 -26
-58 -29 -134 -96 -185 -162 -13 -17 -23 -24 -23 -16 0 8 -13 -1 -29 -20 -16
-19 -27 -38 -25 -41 2 -4 -3 -12 -11 -19 -11 -9 -12 -16 -4 -26 8 -9 4 -17
-16 -30 -14 -9 -23 -19 -21 -22 3 -2 -3 -17 -14 -32 -11 -15 -16 -31 -12 -35
4 -5 2 -5 -5 -1 -12 6 -48 -35 -72 -82 -21 -39 -15 -96 12 -143 36 -60 115
-141 130 -133 7 4 9 4 5 -1 -19 -21 70 -112 182 -187 29 -20 35 -30 35 -60 0
-40 36 -78 73 -78 11 0 25 -7 33 -16 11 -14 128 -73 154 -78 6 -1 44 -22 85
-46 93 -55 239 -170 306 -241 57 -61 183 -228 207 -276 9 -17 21 -34 27 -38 5
-3 31 6 59 19 42 22 50 23 55 10 3 -9 4 -20 0 -25 -9 -15 23 -53 63 -74 37
-20 38 -21 38 -80 1 -33 -7 -107 -18 -164 -17 -102 -17 -105 2 -170 11 -36 26
-91 34 -121 l13 -55 78 0 c44 0 82 5 87 11 5 6 11 40 14 75 3 35 11 100 18
144 7 44 13 125 12 180 l-2 100 42 45 c34 36 46 59 61 117 l18 73 12 -38 c7
-20 13 -52 12 -71 -1 -27 5 -39 31 -60 42 -35 50 -74 51 -250 0 -97 5 -163 16
-205 27 -104 39 -98 74 39 46 179 137 398 216 523 32 49 33 56 24 95 -5 23
-17 109 -26 191 -8 82 -18 155 -21 162 -3 7 5 27 17 44 20 28 21 35 11 98 -5
37 -13 90 -17 117 -3 28 -15 75 -25 105 -21 60 -24 111 -9 139 5 10 10 55 11
99 l2 80 26 -16 c14 -9 33 -22 42 -29 13 -11 19 -10 34 7 18 20 19 20 39 1 33
-29 66 -44 66 -29 0 6 7 3 15 -8 8 -10 15 -15 15 -11 0 4 10 3 21 -4 21 -11
21 -16 15 -108 -10 -148 -27 -252 -48 -294 l-19 -38 36 -14 c40 -17 40 -21 24
-125 -5 -37 -9 -87 -7 -110 l3 -42 110 81 c107 79 259 164 300 168 34 3 95 33
95 46 0 9 2 9 8 0 6 -9 14 -9 37 2 41 18 122 43 170 51 22 4 57 15 79 26 36
18 38 21 32 56 -17 110 -31 332 -26 402 2 29 30 -53 61 -178 34 -139 78 -262
93 -262 9 0 78 29 116 49 20 11 24 71 11 151 -6 36 -18 110 -27 165 -9 55 -19
105 -23 110 -5 6 -14 32 -21 59 -13 46 -12 49 10 66 l23 17 -62 157 c-33 86
-61 160 -61 164 -2 25 -42 86 -80 120 -72 63 -166 136 -199 154 -40 22 -50 47
-26 64 13 10 21 11 25 3 4 -6 14 0 24 15 12 18 25 26 47 26 17 0 32 6 35 15 4
8 14 15 24 15 11 0 22 5 25 10 4 6 10 8 15 5 5 -3 14 5 21 17 16 31 57 68 74
68 22 0 63 61 74 110 18 76 14 144 -10 174 -11 14 -17 26 -12 26 13 0 28 -13
46 -40 13 -19 17 -21 17 -7 0 26 -24 80 -46 101 -19 20 -20 20 46 -2 9 -3 6 2
-5 11 -11 9 -27 17 -35 17 -12 0 -14 11 -12 48 3 35 -1 52 -12 61 -14 12 -16
9 -16 -25 l-1 -39 -14 40 c-8 25 -34 58 -66 87 -53 48 -189 127 -189 109 0 -5
5 -13 10 -16 6 -3 10 -11 10 -17 0 -6 -8 -4 -18 5 -10 10 -22 14 -25 11 -4 -4
-12 -2 -19 3 -19 15 -78 22 -78 9 0 -6 -4 -5 -9 3 -5 7 -13 11 -19 7 -6 -3
-13 -2 -17 4 -3 5 -26 10 -51 10 -25 0 -62 9 -84 20 -22 11 -40 16 -40 11z
m-2827 -626 c-3 -9 -8 -14 -10 -11 -3 3 -2 9 2 15 9 16 15 13 8 -4z m-26 -77
c-3 -8 -6 -5 -6 6 -1 11 2 17 5 13 3 -3 4 -12 1 -19z m1203 -839 c0 -5 7 -9
15 -9 12 0 13 -4 6 -19 -6 -10 -8 -20 -6 -23 3 -3 -3 -13 -14 -22 -19 -17 -19
-16 -23 37 -2 41 0 53 10 50 6 -3 12 -9 12 -14z m1352 -35 l-4 -35 -24 22
c-29 27 -30 39 -4 46 11 3 20 10 20 17 0 7 3 7 8 -1 4 -7 6 -29 4 -49z m-2137
2 c14 6 30 -29 20 -45 -3 -5 0 -13 6 -16 5 -4 8 -13 5 -21 -3 -7 -1 -16 5 -20
6 -3 8 -12 5 -20 -3 -7 -1 -16 5 -20 5 -3 9 -13 8 -22 -1 -10 1 -24 5 -33 4
-9 6 -47 4 -85 -3 -64 -5 -69 -25 -68 -13 0 -23 -4 -23 -9 0 -13 -107 130
-140 188 -42 75 -41 87 8 133 23 21 42 35 42 30 0 -13 44 2 49 16 3 8 6 7 8
-1 3 -7 10 -10 18 -7z m1055 -388 c11 -107 10 -108 -19 -180 -16 -40 -32 -86
-35 -103 -18 -111 -19 -104 15 -136 l32 -30 -12 -122 c-6 -67 -17 -153 -23
-192 l-12 -69 -24 89 c-13 50 -29 119 -36 155 -16 78 -56 222 -98 345 -30 90
-42 122 -80 204 l-20 45 21 15 c11 9 23 29 27 44 5 21 20 35 58 54 28 14 59
32 69 41 15 13 21 13 43 2 22 -12 29 -12 52 1 27 15 27 15 29 -21 2 -19 8 -83
13 -142z"/>
<path d="M8535 6035 c-17 -7 -24 -14 -16 -14 8 -1 20 -9 27 -18 26 -35 17 -41
-50 -36 -54 5 -70 2 -99 -16 -59 -36 -55 -51 11 -53 80 -2 85 -3 100 -11 7 -5
12 -3 12 5 0 8 3 9 8 3 9 -13 79 -57 114 -72 20 -9 29 -22 35 -53 l8 -42 53
39 c44 32 49 40 36 48 -74 46 -78 77 -19 139 24 25 46 46 50 46 4 0 19 8 33
19 15 10 36 21 47 24 11 2 -21 5 -72 6 l-92 1 -40 -38 c-39 -37 -40 -38 -50
-15 -6 12 -23 29 -38 37 -24 12 -33 12 -58 1z"/>
<path d="M8604 5317 c-8 -4 -14 -16 -15 -25 0 -12 -2 -13 -6 -3 -4 9 -19 -1
-50 -34 -24 -26 -41 -50 -39 -53 3 -3 0 -10 -7 -16 -7 -6 -21 -38 -32 -71 -10
-33 -22 -65 -27 -71 -4 -6 -9 -24 -11 -40 -2 -17 -7 -35 -11 -42 -4 -6 -9 -40
-11 -74 -8 -110 -22 -175 -53 -240 -27 -57 -43 -94 -46 -108 -1 -3 -7 -15 -14
-27 -7 -13 -10 -23 -7 -23 3 0 0 -10 -7 -22 -7 -13 -12 -30 -13 -39 0 -9 -5
-22 -11 -30 -7 -8 -26 -60 -44 -116 l-32 -102 -159 -158 c-328 -324 -314 -308
-285 -332 10 -8 16 -9 21 -1 3 6 10 8 15 5 4 -3 13 2 20 10 7 8 18 15 24 15 6
0 37 20 68 45 32 25 60 45 63 45 12 0 121 94 137 118 10 15 18 21 18 14 0 -7
15 2 33 20 18 19 68 55 110 81 42 26 79 57 83 69 4 14 9 17 14 8 9 -14 50 33
50 58 0 8 12 30 26 49 14 18 27 43 29 54 2 12 17 38 32 58 36 46 133 201 133
211 0 4 6 13 14 19 8 7 12 21 9 32 -3 11 1 27 10 37 9 9 16 19 16 22 0 7 9 35
28 85 21 56 24 73 24 129 -1 28 5 57 13 65 17 20 34 135 41 267 4 83 2 104
-10 114 -12 10 -15 10 -15 -1 0 -11 -2 -11 -9 -1 -8 14 -91 13 -117 -1z m84
-194 c-1 -94 -1 -96 -10 -43 -8 49 -3 140 7 140 2 0 4 -44 3 -97z m10 -138
c-3 -3 -9 2 -12 12 -6 14 -5 15 5 6 7 -7 10 -15 7 -18z"/>
<path d="M8269 5100 c-51 -27 -92 -78 -86 -107 3 -19 2 -21 -10 -12 -10 9 -17
9 -25 1 -7 -7 -8 -12 -3 -12 4 0 1 -8 -7 -17 -19 -22 -49 -99 -41 -106 3 -3 1
-12 -3 -19 -4 -7 -9 -19 -10 -28 -1 -8 -5 -33 -9 -55 -4 -22 -9 -49 -10 -60
-2 -11 -4 -22 -5 -25 -1 -3 -2 -9 -1 -14 1 -4 -4 -14 -10 -22 -6 -8 -8 -14 -4
-14 4 0 2 -7 -5 -15 -7 -8 -9 -15 -5 -15 4 0 0 -11 -9 -25 -9 -14 -14 -30 -11
-35 3 -5 1 -11 -4 -14 -5 -4 1 -33 16 -69 23 -56 25 -71 20 -153 -7 -113 1
-125 54 -83 21 17 38 33 37 37 -1 4 1 14 5 22 10 28 59 185 63 204 2 11 8 24
13 29 5 5 7 15 5 22 -3 6 2 18 11 25 8 7 15 18 15 24 0 6 16 42 35 79 25 50
33 76 28 97 -3 16 -2 37 2 47 4 10 8 32 10 48 3 37 8 62 29 148 21 89 20 114
-3 127 -27 14 -40 12 -82 -10z"/>
<path d="M9015 5070 c-25 -10 -141 -113 -169 -148 -11 -14 -22 -35 -23 -46 -2
-11 -12 -29 -22 -41 -27 -30 -70 -107 -75 -135 -2 -14 -5 -26 -7 -27 -1 -2 -2
-6 -4 -10 -1 -5 -5 -16 -9 -25 -4 -9 -8 -22 -10 -30 -1 -7 -5 -19 -9 -25 -5
-7 -5 -13 -2 -13 4 0 -3 -13 -14 -29 -11 -15 -17 -32 -13 -36 4 -4 -5 -17 -19
-28 -28 -23 -84 -107 -72 -107 4 0 -1 -6 -11 -13 -9 -7 -18 -20 -19 -29 -2 -9
-9 -24 -17 -33 -8 -10 -16 -29 -18 -43 -2 -14 -13 -33 -25 -42 -12 -10 -35
-44 -50 -77 -21 -43 -39 -64 -68 -81 -21 -12 -39 -27 -39 -32 0 -6 -6 -10 -13
-10 -8 0 -30 -16 -50 -35 -20 -19 -41 -35 -47 -35 -6 0 -13 -7 -16 -15 -4 -8
-13 -15 -20 -15 -8 0 -20 -11 -26 -25 -7 -16 -14 -21 -18 -15 -4 7 -15 -2 -28
-22 -12 -18 -22 -27 -22 -20 0 10 -137 -91 -165 -123 -5 -6 -27 -21 -47 -34
-21 -12 -38 -28 -38 -34 0 -8 -3 -7 -9 2 -7 11 -13 9 -30 -8 -11 -11 -21 -17
-21 -12 0 8 -175 -38 -197 -52 -7 -5 -17 -6 -22 -2 -6 3 -14 -3 -20 -12 -6
-10 -11 -13 -11 -6 0 7 -15 4 -41 -9 -24 -11 -51 -17 -65 -14 -12 3 -26 1 -29
-5 -4 -6 -13 -8 -20 -5 -7 2 -22 -4 -34 -15 -12 -11 -21 -15 -21 -10 0 15
-110 -44 -145 -77 -17 -15 -51 -51 -77 -78 -25 -28 -54 -54 -63 -58 -9 -3 -14
-10 -11 -15 3 -5 -1 -11 -9 -15 -21 -8 10 52 62 121 38 51 150 173 159 173 2
0 38 27 80 60 41 33 126 94 189 136 63 42 133 94 155 115 22 21 44 39 49 39 8
0 63 62 158 179 15 19 26 37 25 39 -2 3 2 8 9 13 7 4 14 15 16 23 2 9 4 23 6
32 2 9 11 20 20 25 19 11 37 69 37 122 0 117 -132 198 -241 149 -45 -20 -90
-34 -122 -37 -9 -1 -26 -10 -36 -19 -9 -9 -21 -16 -26 -16 -15 0 -136 -92
-185 -140 -28 -27 -50 -44 -50 -38 0 6 -11 -1 -25 -16 -13 -14 -28 -26 -34
-26 -5 0 -18 -15 -30 -32 -11 -18 -21 -27 -21 -20 0 14 -103 -67 -142 -112
-14 -17 -29 -28 -33 -24 -4 4 -20 -1 -34 -12 -89 -63 -283 -145 -437 -185 -54
-14 -102 -31 -106 -38 -6 -9 -8 -9 -8 2 0 10 -3 11 -13 3 -7 -6 -22 -10 -32
-10 -36 3 -224 -62 -234 -80 -6 -10 -11 -12 -11 -4 0 16 -98 -33 -210 -106
-91 -59 -268 -228 -337 -323 -49 -66 -152 -248 -158 -277 -2 -11 -12 -33 -22
-48 -10 -16 -17 -29 -16 -31 1 -1 -4 -18 -12 -38 -8 -19 -17 -42 -19 -52 -1
-10 -6 -26 -10 -35 -4 -9 -9 -23 -10 -32 -1 -8 -5 -19 -9 -22 -4 -4 -7 -20 -7
-35 0 -15 -5 -31 -10 -34 -6 -4 -8 -11 -4 -16 3 -5 0 -16 -6 -24 -7 -8 -9 -15
-5 -15 4 0 2 -6 -4 -14 -9 -10 -7 -17 5 -27 25 -20 1003 -27 1015 -7 7 11 9
11 9 0 0 -16 90 -13 102 3 5 6 8 5 8 -2 0 -19 44 -16 71 6 13 10 38 25 56 34
17 9 38 24 47 32 10 10 16 12 16 5 0 -9 7 -8 23 2 12 8 49 22 82 32 33 10 66
25 73 34 9 11 12 12 12 3 0 -10 3 -11 13 -2 8 6 17 8 20 4 4 -3 10 2 13 11 5
13 9 14 14 6 5 -8 13 -9 21 -4 8 5 23 10 34 11 11 2 25 10 31 19 9 12 13 12
16 2 4 -11 8 -10 21 1 10 7 17 10 17 6 0 -4 7 -2 15 5 8 6 18 9 23 6 5 -3 21
2 36 9 16 8 32 13 36 10 5 -3 13 3 19 12 6 10 11 13 11 7 0 -16 158 27 170 45
4 8 17 12 29 8 12 -3 24 -1 27 5 3 5 12 7 20 4 7 -3 18 3 23 12 8 14 11 14 11
2 0 -12 4 -10 15 4 11 14 15 16 15 5 1 -10 4 -10 14 4 8 10 16 13 17 8 3 -7
14 -5 33 4 15 8 37 15 47 15 10 0 23 8 28 18 6 9 11 12 11 5 0 -12 91 19 120
42 8 7 35 22 60 34 58 27 86 49 110 86 11 17 20 23 20 15 0 -8 33 19 74 59 41
41 73 79 72 85 -2 6 -1 7 2 3 2 -5 52 42 111 102 59 61 112 111 118 111 6 0
34 27 63 60 29 33 58 60 65 60 6 0 40 32 74 70 35 39 68 70 76 70 7 0 30 21
51 48 21 26 44 51 51 55 11 7 67 95 68 107 1 3 6 15 13 28 7 12 10 22 6 22 -4
0 0 8 9 18 17 18 71 130 72 147 0 6 8 21 17 35 9 14 29 57 43 95 15 39 30 75
34 80 5 6 16 33 27 60 10 28 23 59 30 70 7 11 13 23 14 27 0 4 8 25 17 45 13
32 14 48 3 106 -12 67 -12 173 1 192 3 6 12 27 18 47 7 21 17 41 23 44 7 4 8
-2 3 -17 -5 -13 -9 -33 -10 -44 -1 -11 -4 -20 -5 -20 -5 0 -11 -51 -13 -110
-2 -54 0 -60 18 -60 11 0 20 5 20 10 1 17 27 89 37 102 5 6 11 24 14 39 3 16
9 33 14 39 4 5 16 36 25 67 18 63 13 85 -27 112 -24 17 -119 21 -153 6z
m-1272 -653 c13 2 7 -4 -15 -17 -21 -11 -38 -28 -38 -38 0 -14 -2 -15 -9 -3
-8 12 -12 10 -22 -12 -7 -16 -15 -23 -19 -17 -8 13 -70 -53 -70 -74 0 -19 40
-54 40 -35 1 8 9 -2 19 -21 11 -19 31 -48 45 -63 l26 -28 41 23 c22 12 67 47
99 76 47 42 58 48 55 31 -3 -12 -15 -33 -27 -47 -28 -30 -122 -91 -161 -104
-26 -10 -32 -7 -73 36 -24 25 -44 49 -44 53 0 4 -14 22 -32 40 -28 29 -30 35
-20 55 21 38 62 92 62 79 0 -7 13 -2 30 11 17 12 30 29 30 37 0 13 2 13 9 2 7
-11 12 -10 27 6 11 10 20 16 22 12 2 -4 13 -5 25 -2z"/>
<path d="M2179 4466 c-85 -23 -136 -95 -130 -186 3 -53 108 -245 160 -294 24
-22 58 -55 75 -72 49 -48 113 -96 227 -172 58 -38 131 -90 162 -116 31 -25 60
-46 63 -46 21 0 180 -180 211 -238 l36 -67 -74 71 c-96 92 -103 94 -379 118
-153 14 -158 15 -335 81 -247 92 -294 115 -351 169 -27 26 -69 62 -93 79 -61
44 -82 66 -194 199 -103 122 -132 145 -251 192 -103 41 -154 34 -226 -30 -33
-30 -40 -42 -35 -61 15 -62 180 -263 204 -249 26 16 -9 110 -71 194 -43 58
-22 59 26 1 50 -59 71 -113 79 -205 4 -37 41 -86 167 -217 217 -225 207 -217
485 -401 110 -73 236 -158 280 -190 138 -99 260 -152 535 -229 262 -73 350
-94 350 -83 0 6 5 3 11 -6 5 -10 28 -21 50 -24 22 -4 42 -11 45 -15 3 -5 10
-7 15 -3 5 3 16 0 24 -6 12 -10 15 -10 15 1 0 9 4 8 13 -3 17 -23 87 -51 87
-35 0 6 7 1 16 -12 13 -18 18 -20 25 -10 6 10 9 10 9 2 0 -7 25 -28 55 -48 42
-27 66 -35 100 -35 29 0 45 4 45 13 0 9 2 9 8 -1 7 -10 114 -12 503 -10 474 3
494 4 497 22 2 10 -9 62 -26 115 -16 53 -39 130 -52 171 -24 81 -103 246 -149
314 -15 22 -35 55 -44 71 -22 44 -110 147 -212 250 -163 164 -372 281 -629
351 -213 59 -278 80 -385 128 -55 25 -105 46 -109 46 -4 0 -33 19 -64 43 -31
23 -92 69 -135 101 -43 32 -101 80 -128 106 -28 26 -84 68 -125 95 -41 27 -87
57 -103 67 -42 29 -108 55 -157 63 -25 3 -52 8 -60 10 -8 2 -36 -2 -61 -9z
m140 -81 c16 -8 31 -12 34 -9 6 6 127 -112 127 -124 0 -5 -16 -23 -35 -42 -19
-19 -35 -39 -35 -45 0 -5 -9 -16 -20 -23 -12 -7 -18 -17 -15 -22 7 -12 -34
-40 -59 -40 -11 0 -38 11 -60 24 -42 25 -131 104 -131 117 0 4 -3 11 -7 15 -5
4 -8 11 -8 15 0 4 30 -22 67 -57 37 -35 80 -70 97 -78 l31 -16 67 73 c37 39
67 76 68 81 0 13 -69 77 -125 114 -49 33 -47 44 4 17z"/>
</g>
</svg>
